Coordinates
version=1
nRows=21
nColumns=19
inDegrees=yes

Units are S.I. units (second, meters, Newtons, ...)
If the header above contains a line with 'inDegrees', this indicates whether rotational values are in degrees (yes) or radians (no).

endheader
time	pelvis_tilt	pelvis_list	pelvis_rotation	pelvis_tx	pelvis_ty	pelvis_tz	hip_flexion_r	hip_adduction_r	hip_rotation_r	knee_angle_r	knee_angle_r_beta	ankle_angle_r	hip_flexion_l	hip_adduction_l	hip_rotation_l	knee_angle_l	knee_angle_l_beta	ankle_angle_l
     16.90000000	      2.75335152	     12.52045929	     -2.00188377	      2.25620702	      1.00596343	      0.98829579	    -16.02635368	    -17.83099708	     -8.01180313	     75.29324880	      1.31411510	    -13.10332774	     26.57825621	     11.89520734	    -12.57264634	     32.53460721	      0.56783602	      2.45391065
     16.90666667	      2.44640881	     12.43710862	     -1.69725635	      2.25552130	      1.00052927	      0.98833019	    -14.14434822	    -17.29988180	     -6.87799425	     78.58537333	      1.37157351	    -12.16196594	     26.85643107	     11.79114167	    -12.45265550	     34.96218874	      0.61020531	      4.31241177
     16.91333333	      2.37783549	     12.54981470	     -1.26602483	      2.25466924	      0.99528179	      0.98815616	    -12.59638315	    -17.05730903	     -6.18967512	     81.72989658	      1.42645579	    -11.20217076	     26.87503738	     12.05646862	    -12.03443641	     37.44214239	      0.65348866	      6.43903307
     16.92000000	      2.25697773	     12.70326390	     -0.81612243	      2.25351027	      0.99002071	      0.98797632	    -10.89796610	    -16.90378126	     -5.57384322	     84.83525760	      1.48065457	    -10.31012754	     26.94735961	     12.43907869	    -11.44294249	     39.95671902	      0.69737631	      8.70053021
     16.92666667	      2.05331968	     12.85811831	     -0.35486277	      2.25202081	      0.98482724	      0.98771718	     -8.99587347	    -16.80424498	     -4.97342650	     87.88199995	      1.53383025	     -9.50326415	     27.08175868	     12.89356960	    -10.71780871	     42.44736697	      0.74084631	     10.99418209
     16.93333333	      1.79412498	     13.03939948	      0.13267558	      2.25024485	      0.97978800	      0.98743294	     -6.93500357	    -16.79699365	     -4.42741778	     90.84606886	      1.58556301	     -8.78335357	     27.19565735	     13.43698662	     -9.89299725	     44.81261503	      0.78212768	     13.24006575
     16.94000000	      1.51740995	     13.22374151	      0.62993670	      2.24820178	      0.97503510	      0.98715499	     -4.74391880	    -16.84051794	     -3.88925912	     93.70185928	      1.63540596	     -8.18073088	     27.20437369	     14.02374124	     -9.00410382	     46.97206214	      0.81981714	     15.38521430
     16.94666667	      1.23459528	     13.40682712	      1.14140570	      2.24589958	      0.97065180	      0.98690753	     -2.43885794	    -16.94215082	     -3.37452512	     96.42241490	      1.68288861	     -7.66112100	     27.06110084	     14.63078422	     -8.07993589	     48.86503034	      0.85285567	     17.38543710
     16.95333333	      1.31975611	     13.59035683	      1.55669946	      2.24348776	      0.96717116	      0.98684355	     -0.46865184	    -17.09508385	     -2.89699055	     98.89419675	      1.72602934	     -7.14891411	     26.29013086	     15.20925333	     -7.17935786	     50.37579528	      0.87922349	     19.38531189
     16.96000000	      0.67676400	     13.55503119	      2.07831361	      2.24061581	      0.96334628	      0.98673488	      2.54708699	    -16.92088801	     -2.15181555	    101.33966833	      1.76871088	     -6.86566682	     26.21368376	     15.53482603	     -6.26195159	     51.72829527	      0.90282907	     20.90875425
     16.96666667	      0.46286059	     13.58306449	      2.53362520	      2.23777599	      0.96052640	      0.98674990	      5.09800351	    -16.90526644	     -1.55788280	    103.47272493	      1.80593974	     -6.47141496	     25.40277257	     15.89263117	     -5.36053893	     52.62850294	      0.91854066	     22.44819411
     16.97333333	      0.27997460	     13.47976527	      2.91012060	      2.23485301	      0.95828970	      0.98692662	      7.72633407	    -16.71360386	     -0.89013624	    105.35402484	      1.83877461	     -6.10407717	     24.37229893	     16.02377538	     -4.54531677	     53.21213554	      0.92872697	     23.85741328
     16.98000000	      0.11382777	     13.32559934	      3.22735754	      2.23190291	      0.95659581	      0.98715595	     10.40579565	    -16.47609941	     -0.20769898	    106.97206920	      1.86701482	     -5.69549134	     23.13970670	     16.03710732	     -3.79685137	     53.45931747	      0.93304111	     25.09601401
     16.98666667	      0.41774584	     13.14758923	      3.59285128	      2.22899464	      0.95611991	      0.98736440	     12.47528371	    -16.20222496	      0.23526855	    108.18674740	      1.88821495	     -5.18224973	     21.18205144	     16.02256996	     -2.87943568	     53.36039492	      0.93131458	     26.07724980
     16.99333333	      0.00854193	     12.80636549	      3.65743674	      2.22622229	      0.95512882	      0.98784411	     15.58400100	    -15.68607208	      1.12249510	    109.27487531	      1.90720636	     -4.63864671	     19.94350276	     15.62428661	     -2.54550268	     53.05752226	      0.92602846	     27.20509349
     17.00000000	      0.11714121	     12.45832330	      3.96422288	      2.22362798	      0.95555320	      0.98795120	     17.86548793	    -15.26007912	      1.48123186	    109.87830338	      1.91773817	     -3.98760983	     17.91997036	     15.33992729	     -1.73432099	     52.42250766	      0.91494536	     27.88253038
     17.00666667	      0.10805406	     12.02606775	      4.14015750	      2.22129659	      0.95627195	      0.98799198	     20.27956714	    -14.75215510	      1.88591502	    110.18771764	      1.92313847	     -3.27280609	     15.93852172	     14.89364353	     -1.11120132	     51.58220507	      0.90027931	     28.54160670
     17.01333333	      0.00044658	     11.51764184	      3.69275529	      2.21895799	      0.95716910	      0.98893384	     23.02924976	    -13.79520183	      2.88659733	    110.27616432	      1.92468215	     -2.60597169	     14.11247076	     14.11471544	     -1.26747845	     50.59175519	      0.88299270	     29.07054245
     17.02000000	     -0.22256647	     11.01333146	      3.89607385	      2.21706978	      0.95875179	      0.98877668	     25.49947944	    -13.26547519	      3.05135839	    109.92459659	      1.91854614	     -1.89626271	     12.22070088	     13.60090391	     -0.63867392	     49.40317771	      0.86224811	     29.14312268
     17.02666667	     -0.51048494	     10.46015839	      3.94238720	      2.21545073	      0.96070805	      0.98876431	     27.97638739	    -12.60155913	      3.27232073	    109.26709070	      1.90707050	     -1.18007125	     10.36759830	     13.00483579	     -0.12936159	     48.06875991	      0.83895813	     29.05745911
     17.03333333	     -0.45515905	      9.73340136	      3.18102777	      2.21414333	      0.96345470	      0.98989329	     30.15256407	    -11.21777674	      4.03507337	    108.27961114	      1.88983573	     -0.55425034	      8.15601997	     11.99726992	     -0.49063444	     46.52174870	      0.81195769	     28.70123818
